<svg width="64" height="64" viewBox="0 0 64 64" fill="none" xmlns="http://www.w3.org/2000/svg">
<path d="M35.6583 47.2227H33.7454C33.0428 47.2227 32.4713 47.7944 32.4713 48.497V54.2607C32.4713 54.9634 33.0428 55.535 33.7454 55.535H35.6583C37.4177 55.535 38.8488 54.1047 38.8488 52.3465V50.411C38.8488 48.6531 37.4177 47.2227 35.6583 47.2227ZM36.9597 52.3466C36.9597 53.0629 36.3758 53.6458 35.6583 53.6458H34.3605V49.1121H35.6583C36.3758 49.1121 36.9597 49.695 36.9597 50.4113V52.3466Z" fill="black"/>
<path d="M29.257 47.2227H26.0971C25.5754 47.2227 25.1525 47.6456 25.1525 48.1673C25.1525 48.6891 25.5754 49.112 26.0971 49.112H29.0349V50.4342H26.0971C25.5754 50.4342 25.1525 50.8571 25.1525 51.3788C25.1525 51.9006 25.5754 52.3235 26.0971 52.3235H29.0349V53.6457H26.0971C25.5754 53.6457 25.1525 54.0686 25.1525 54.5903C25.1525 55.1121 25.5754 55.535 26.0971 55.535H29.257C30.1763 55.535 30.9244 54.7868 30.9244 53.8671V48.8904C30.9242 47.9709 30.1763 47.2227 29.257 47.2227Z" fill="black"/>
<path d="M63.9431 53.4808L62.3525 47.8979C62.2095 47.3961 61.687 47.1052 61.1851 47.2483C60.6834 47.3912 60.3926 47.9139 60.5355 48.4156L61.6574 52.3532L50.3731 46.0672C50.3773 45.9302 50.376 38.898 50.376 38.898C50.376 38.3762 49.9531 37.9533 49.4314 37.9533C48.9096 37.9533 48.4867 38.3762 48.4867 38.898C48.4867 38.898 48.4902 46.1219 48.4762 46.2407C48.4388 46.2684 43.8437 48.8343 43.8437 48.8343C42.7362 43.6675 38.3279 39.7119 32.9434 39.2944V36.7236L48.4867 28.0681V34.5663C48.4867 35.0881 48.9096 35.511 49.4314 35.511C49.9531 35.511 50.376 35.0881 50.376 34.5663V26.2681C50.362 25.7959 50.1142 25.4085 49.6324 25.106L32.9436 15.8126V2.98881L35.8366 5.88388C36.0212 6.06846 36.2629 6.16082 36.5049 6.16082C36.7466 6.16082 36.9881 6.06859 37.1727 5.88438C37.5416 5.51559 37.5419 4.91748 37.1731 4.54844L33.075 0.447646C32.796 0.163087 32.4044 0 31.9989 0C31.5932 0 31.2125 0.157588 30.9269 0.443522L26.8247 4.54832C26.4559 4.91736 26.4561 5.51547 26.8251 5.88426C27.1943 6.25317 27.7923 6.25292 28.161 5.88388L31.0542 2.98881V15.8125L24.5608 19.4274C24.105 19.6811 23.9412 20.2564 24.1948 20.7122C24.4487 21.1681 25.024 21.3318 25.4797 21.0781L31.9989 17.4489L47.836 26.268L31.999 35.0871L16.1622 26.2664L22.1737 22.8951C22.6287 22.6399 22.7908 22.0641 22.5355 21.6091C22.2803 21.154 21.7047 20.992 21.2495 21.2472L14.3688 25.106C13.8949 25.37 13.6238 25.7949 13.6248 26.2715C13.6248 26.2735 13.6252 26.2754 13.6252 26.2773C13.6252 26.2773 13.6237 45.9332 13.6275 46.0673L2.34329 52.3517L3.46241 48.415C3.60513 47.9131 3.31394 47.3907 2.81206 47.248C2.31043 47.1053 1.7878 47.3965 1.64508 47.8984L0.0567014 53.4861C-0.0513985 53.8741 -0.00390953 54.2806 0.19042 54.6307C0.386125 54.9831 0.719797 55.2472 1.10083 55.3535L6.68029 56.945C6.76689 56.9698 6.85412 56.9815 6.93998 56.9815C7.35126 56.9815 7.72954 56.7108 7.84789 56.2958C7.99098 55.794 7.7003 55.2713 7.19867 55.1282L3.25908 54.0044L14.437 47.7793C14.557 47.8671 19.8968 50.8532 19.8968 50.8532C19.8893 51.0275 19.885 51.2027 19.885 51.3789C19.885 58.0625 25.3193 63.5001 31.9992 63.5001C38.679 63.5001 44.1132 58.0626 44.1132 51.3789C44.1132 51.2029 44.1088 51.0276 44.1013 50.8533C44.1013 50.8533 49.4451 47.8665 49.5642 47.779L60.7406 54.0051L56.8031 55.1283C56.3014 55.2714 56.0107 55.7942 56.1539 56.2959C56.2723 56.7111 56.6506 56.9816 57.0618 56.9816C57.1477 56.9816 57.2349 56.9699 57.3214 56.9451L62.9013 55.3535C63.2828 55.2444 63.6129 54.9812 63.8079 54.6306C64.0032 54.2778 64.052 53.8714 63.9431 53.4808ZM15.771 46.3927C15.6345 46.3164 15.562 46.2687 15.5241 46.241C15.5106 46.1229 15.5145 28.0683 15.5145 28.0683L31.0542 36.7236V39.2944C25.6699 39.7119 21.2618 43.6672 20.154 48.8339L15.771 46.3927ZM31.9989 61.6107C26.361 61.6107 21.7742 57.0206 21.7742 51.3788C21.7742 45.737 26.361 41.1469 31.9989 41.1469C37.637 41.1469 42.2238 45.737 42.2238 51.3788C42.2238 57.0206 37.637 61.6107 31.9989 61.6107Z" fill="#009EE3"/>
</svg>
