<svg width="63" height="64" viewBox="0 0 63 64" fill="none" xmlns="http://www.w3.org/2000/svg">
<g clip-path="url(#clip0)">
<path d="M62.0403 0.97526C61.1704 0.0916353 59.9022 -0.220365 58.731 0.160135L12.6044 15.1561C11.5093 15.5123 10.6937 16.4024 10.4229 17.5376C10.152 18.6729 10.4755 19.8438 11.2886 20.6696L24.5798 34.1719L18.5495 40.2981L17.7752 39.5115C17.285 39.0138 16.4904 39.0138 16.0001 39.5115L1.67559 54.0631C-0.559183 56.3335 -0.559183 60.0275 1.67559 62.298C2.79311 63.4331 4.26106 64.0006 5.72876 64.0006C7.19659 64.0006 8.66453 63.4331 9.78192 62.298L24.1064 47.7461C24.5965 47.2482 24.5965 46.4409 24.1064 45.9429L23.3321 45.1562L29.3625 39.0301L42.6536 52.5322C43.2776 53.1661 44.1014 53.5071 44.9561 53.5071C45.215 53.5071 45.477 53.4757 45.7368 53.4118C46.8542 53.1366 47.7307 52.3081 48.0811 51.1956L62.8426 4.33713C63.2174 3.14713 62.91 1.85888 62.0403 0.97526ZM8.00697 60.4949C6.75103 61.7711 4.70685 61.771 3.45067 60.4949C2.19448 59.2188 2.19448 57.1422 3.45067 55.8662L16.8878 42.216L21.4441 46.8446L8.00697 60.4949ZM21.5569 43.353L20.3246 42.1011L33.9198 28.2903C34.2594 27.9451 34.8122 27.9451 35.1521 28.2903C35.492 28.6354 35.492 29.197 35.1521 29.5421L21.5569 43.353ZM60.4519 3.56001L45.6902 50.4185C45.5727 50.7912 45.2699 50.903 45.1452 50.9338C45.0201 50.9646 44.7009 51.0059 44.4285 50.7293L31.1373 37.2271L36.9272 31.3454C38.2456 30.0059 38.2456 27.8265 36.9272 26.4871C35.6087 25.1478 33.4634 25.1475 32.1448 26.4871L26.355 32.3689L13.0638 18.8668C12.7914 18.59 12.8323 18.2654 12.8625 18.1386C12.8928 18.012 13.0027 17.7044 13.3697 17.585L59.4959 2.58901C59.8941 2.45913 60.1669 2.67838 60.2653 2.77851C60.3639 2.87851 60.5792 3.15526 60.4519 3.56001Z" fill="#009EE3"/>
<path d="M44.0059 10.9499C43.794 10.2796 43.0876 9.91018 42.4275 10.1252L41.7155 10.3571C41.0555 10.5722 40.692 11.2899 40.9037 11.9604C41.0744 12.5016 41.5676 12.8464 42.0986 12.8464C42.2254 12.8464 42.3547 12.8267 42.4821 12.7852L43.194 12.5533C43.8541 12.3383 44.2176 11.6204 44.0059 10.9499Z" fill="black"/>
<path d="M39.4487 12.4345C39.2371 11.764 38.5306 11.3945 37.8704 11.6096L17.7905 18.1496C17.1303 18.3647 16.7668 19.0824 16.9785 19.7529C17.1492 20.2941 17.6424 20.639 18.1734 20.639C18.3003 20.639 18.4295 20.6192 18.5568 20.5777L38.6367 14.0377C39.2969 13.8226 39.6603 13.105 39.4487 12.4345Z" fill="black"/>
</g>
<defs>
<clipPath id="clip0">
<rect width="63" height="64" fill="white"/>
</clipPath>
</defs>
</svg>
