<svg width="60" height="61" viewBox="0 0 60 61" fill="none" xmlns="http://www.w3.org/2000/svg">
<g clip-path="url(#clip0)">
<path d="M59.3443 43.9102L53.7591 41.8434C53.2445 41.654 52.6766 41.9245 52.4904 42.4477L52.1513 43.3934L45.6809 40.9946C45.5184 40.9326 45.3424 40.9174 45.1716 40.9494L31.7094 43.3663C30.4891 43.5871 29.4409 44.3749 28.874 45.4951L22.6987 43.205C21.7125 42.8362 20.6212 42.8854 19.6708 43.3413C18.463 43.9142 17.619 45.0639 17.4221 46.4039C17.1754 48.3434 18.3053 50.1919 20.1255 50.8258L40.4672 58.3531C40.5756 58.3939 40.6907 58.415 40.8063 58.4146C40.9141 58.4146 41.021 58.3964 41.1231 58.3614L46.8041 56.4116L47.4087 56.6349L47.0696 57.5815C46.8834 58.1047 47.1494 58.6826 47.6641 58.8719L53.2503 60.9382C53.3581 60.9791 53.4728 61.0002 53.5879 60.9997C54.0043 61.0002 54.3768 60.7351 54.519 60.3373L59.9398 45.1942C60.1221 44.6724 59.8561 44.0991 59.3443 43.9102ZM46.4989 54.393L40.8179 56.3428L20.8026 48.9355C19.8768 48.6222 19.2862 47.6997 19.3801 46.7117C19.4638 46.1098 19.8101 45.5787 20.3228 45.2655C20.8355 44.9527 21.4595 44.8923 22.0211 45.1008L28.4484 47.4784C28.4518 47.6643 28.4663 47.8497 28.4929 48.0331C28.8813 50.2175 30.9283 51.676 33.0802 51.3013L44.2328 49.3023L43.8879 47.3181L32.7407 49.3176C31.6674 49.503 30.6458 48.7791 30.4456 47.6908C30.4044 47.4612 30.4059 47.2251 30.4504 46.996C30.4576 46.9625 30.4634 46.9291 30.4673 46.8952C30.4804 46.8091 30.5031 46.725 30.5355 46.6444C30.7788 45.9682 31.3573 45.475 32.0543 45.3481L45.2529 42.9818L51.4741 45.2827L48.0859 54.7495L47.1548 54.4062C46.9439 54.3266 46.7127 54.3217 46.4989 54.393ZM52.9915 58.7047L49.268 57.3268L54.0106 44.0774L57.7346 45.4548L52.9915 58.7047Z" fill="#009EE3"/>
<path d="M23.2665 16.2454C23.5862 17.4355 24.1759 18.5331 24.988 19.4492C24.973 19.5299 24.9624 19.611 24.9575 19.6931V25.1777C24.9575 26.8462 26.2877 28.199 27.9293 28.199V38.2702C27.9269 38.6537 28.1397 39.0053 28.4769 39.1765L30.4581 40.1836C30.7372 40.3252 31.0651 40.3252 31.3437 40.1836L33.3249 39.1765C33.6626 39.0053 33.8749 38.6537 33.873 38.2702V28.199C35.5141 28.199 36.8448 26.8462 36.8448 25.1777V19.6931C36.8395 19.6051 36.8283 19.5176 36.8119 19.431C37.4736 18.6909 37.9892 17.8284 38.3307 16.8901C39.7934 17.1399 41.2575 16.4569 42.0256 15.167C42.9674 13.5831 42.7096 11.5477 41.4036 10.2583L33.3419 2.06417C32.0446 0.738397 30.2791 -0.00513746 28.4391 -0.000219902H18.0233C17.8888 -0.000711658 17.7563 0.0273184 17.6329 0.0814116L10.8907 3.02113H10.0984V1.0069C10.0984 0.45072 9.65489 -0.000219902 9.10783 -0.000219902H1.18299C0.63593 -0.000219902 0.192383 0.45072 0.192383 1.0069V17.1207C0.192383 17.6769 0.63593 18.1279 1.18299 18.1279H9.10783C9.65489 18.1279 10.0984 17.6769 10.0984 17.1207V15.1065H10.2431C10.9522 17.5235 14.1378 19.135 17.0327 19.135C19.4342 19.1851 21.7284 18.122 23.2665 16.2454ZM8.11723 16.1136H2.17359V2.01401H8.11723V16.1136ZM31.8918 37.6476L30.9011 38.1512L29.9105 37.6476V28.199H31.8918V37.6476ZM34.8636 25.1777C34.8636 25.7338 34.42 26.1848 33.873 26.1848H27.9293C27.3823 26.1848 26.9387 25.7338 26.9387 25.1777V21.0666C27.6048 21.461 28.325 21.7531 29.0752 21.9326C29.4177 22.7799 30.2762 23.2883 31.1696 23.1733C32.0635 23.0587 32.7706 22.3491 32.8949 21.4418C33.0192 20.535 32.5297 19.6557 31.7012 19.2968C30.8721 18.9383 29.9096 19.1886 29.3528 19.9085C28.7942 19.7595 28.2597 19.5279 27.7678 19.2205C28.7226 18.6319 29.7916 18.2592 30.9011 18.1279C32.3232 18.331 33.6795 18.867 34.8636 19.6931V25.1777ZM35.6012 17.7984C34.1849 16.8724 32.5757 16.2956 30.9011 16.1136C29.2295 16.2946 27.6227 16.8704 26.2083 17.7944C25.6042 17.0126 25.2042 16.0881 25.0455 15.1065H29.9105C31.3616 15.1213 32.6986 14.3079 33.3714 13.0008L36.1454 15.8205C36.2561 15.9258 36.3732 16.0236 36.496 16.1136C36.2919 16.7219 35.9896 17.2914 35.6012 17.7984ZM33.826 10.6138C33.7337 9.78965 33.3902 9.01514 32.8446 8.39798C35.0851 9.18922 36.6489 11.2585 36.823 13.6632L33.826 10.6138ZM21.9857 14.0994C21.9857 15.6243 19.5319 17.1207 17.0327 17.1207C14.5334 17.1207 12.0796 15.6243 12.0796 14.0994C12.0796 13.5432 11.6361 13.0923 11.089 13.0923H10.0984V5.03536H11.089C11.223 5.03585 11.356 5.00782 11.4794 4.95373L18.2211 2.01401H28.4343C29.75 2.00909 31.0134 2.54019 31.9411 3.48829L40.0009 11.6824C40.6524 12.301 40.799 13.2944 40.3545 14.0802C40.0236 14.6128 39.4451 14.9324 38.826 14.9251C38.81 14.9251 38.795 14.9251 38.7791 14.9251C38.8091 14.6511 38.8245 14.3753 38.826 14.0994C38.8212 9.65196 35.2757 6.04739 30.9011 6.04247C29.57 6.04444 28.2611 6.39113 27.0979 7.04959H19.0139V9.06382H29.9105C31.0047 9.06382 31.8918 9.9657 31.8918 11.0781C31.8918 12.1904 31.0047 13.0923 29.9105 13.0923H22.9763C22.4292 13.0923 21.9857 13.5432 21.9857 14.0994Z" fill="black"/>
</g>
<defs>
<clipPath id="clip0">
<rect width="60" height="61" fill="white"/>
</clipPath>
</defs>
</svg>
