<svg width="19" height="19" viewBox="0 0 19 19" fill="none" xmlns="http://www.w3.org/2000/svg">
<g clip-path="url(#clip0)">
<path d="M9.50326 4.62173C6.80921 4.62173 4.62817 6.80515 4.62817 9.49682C4.62817 12.1909 6.81159 14.3719 9.50326 14.3719C12.1973 14.3719 14.3783 12.1885 14.3783 9.49682C14.3783 6.80278 12.1949 4.62173 9.50326 4.62173ZM9.50326 12.6611C7.75446 12.6611 6.33896 11.2448 6.33896 9.49682C6.33896 7.74882 7.75526 6.33253 9.50326 6.33253C11.2513 6.33253 12.6675 7.74882 12.6675 9.49682C12.6683 11.2448 11.252 12.6611 9.50326 12.6611Z" fill="white"/>
<path d="M13.4166 0.0614817C11.6686 -0.02006 7.33899 -0.0161017 5.58941 0.0614817C4.05199 0.133523 2.69586 0.504815 1.60257 1.59811C-0.224594 3.42527 0.00894749 5.88736 0.00894749 9.49815C0.00894749 13.1937 -0.196886 15.5987 1.60257 17.3982C3.43686 19.2317 5.93457 18.9918 9.50261 18.9918C13.1633 18.9918 14.4268 18.9942 15.7212 18.4931C17.481 17.8099 18.8094 16.2368 18.9393 13.4114C19.0216 11.6626 19.0169 7.33373 18.9393 5.58415C18.7825 2.24886 16.9926 0.226148 13.4166 0.0614817ZM16.1835 16.1893C14.9857 17.3871 13.324 17.2802 9.47966 17.2802C5.52132 17.2802 3.93403 17.3388 2.77582 16.1774C1.44186 14.8498 1.68332 12.7179 1.68332 9.48549C1.68332 5.11153 1.23445 1.96148 5.62424 1.73665C6.63282 1.70102 6.9297 1.68915 9.46857 1.68915L9.5042 1.7129C13.723 1.7129 17.0329 1.27115 17.2317 5.66015C17.2768 6.66161 17.2871 6.96244 17.2871 9.49736C17.2863 13.4098 17.3607 15.0066 16.1835 16.1893Z" fill="white"/>
<path d="M14.5713 5.56858C15.2005 5.56858 15.7105 5.05854 15.7105 4.42937C15.7105 3.8002 15.2005 3.29016 14.5713 3.29016C13.9422 3.29016 13.4321 3.8002 13.4321 4.42937C13.4321 5.05854 13.9422 5.56858 14.5713 5.56858Z" fill="white"/>
</g>
<defs>
<clipPath id="clip0">
<rect width="19" height="19" fill="white"/>
</clipPath>
</defs>
</svg>
