<svg width="64" height="64" viewBox="0 0 64 64" fill="none" xmlns="http://www.w3.org/2000/svg">
<g clip-path="url(#clip0)">
<path d="M46.6434 2.51453L9.71338 0.0444028C8.5095 -0.0353472 7.46537 0.877528 7.38475 2.08103L7.09587 6.40065H2.1875C0.981375 6.40065 0 7.38203 0 8.58815V61.7714C0 62.9775 0.981375 63.9589 2.1875 63.9589H30.4551C30.7001 63.9589 30.9429 63.8588 31.1166 63.6858L35.3839 59.4374C35.4272 59.4467 35.4715 59.454 35.517 59.457L42.8022 59.9443C43.965 60.021 45.0529 59.0753 45.1309 57.9077L48.68 4.84328C48.7599 3.65228 47.8343 2.59415 46.6434 2.51453ZM31.3926 60.7523V54.2398C31.3926 54.0675 31.5329 53.9273 31.7051 53.9273H38.1926L31.3926 60.7523ZM43.26 57.7827C43.2295 57.9714 43.1186 58.0684 42.9275 58.0735L37.1425 57.6865L41.1115 53.7352C41.2882 53.5593 41.3876 53.3202 41.3876 53.0708V8.58828C41.3876 7.38215 40.4062 6.40078 39.2001 6.40078H29.451C28.2389 6.40078 28.2389 8.27578 29.451 8.27578H39.2001C39.3725 8.27578 39.5126 8.41603 39.5126 8.58828V52.0523H31.7051C30.499 52.0523 29.5176 53.0337 29.5176 54.2398V62.0839H2.1875C2.01525 62.0839 1.875 61.9437 1.875 61.7714V8.58828C1.875 8.41603 2.01525 8.27578 2.1875 8.27578H24.4585C25.6706 8.27578 25.6706 6.40078 24.4585 6.40078H8.975L9.2555 2.20628C9.286 2.0174 9.39688 1.92053 9.58813 1.9154L46.5181 4.3854C46.707 4.4159 46.804 4.52678 46.8091 4.71803L43.26 57.7827Z" fill="#009EE3"/>
<path d="M33.4784 29.6309H7.9093C7.39155 29.6309 6.9718 30.0506 6.9718 30.5684C6.9718 31.0861 7.39155 31.5059 7.9093 31.5059H33.4784C33.9963 31.5059 34.4159 31.0861 34.4159 30.5684C34.4159 30.0506 33.9963 29.6309 33.4784 29.6309Z" fill="black"/>
<path d="M33.4784 36.1665H7.9093C7.39155 36.1665 6.9718 36.5863 6.9718 37.104C6.9718 37.6218 7.39155 38.0415 7.9093 38.0415H33.4784C33.9963 38.0415 34.4159 37.6218 34.4159 37.104C34.4159 36.5863 33.9963 36.1665 33.4784 36.1665Z" fill="black"/>
<path d="M6.9718 24.0327C6.9718 24.5505 7.39155 24.9702 7.9093 24.9702H33.4784C33.9963 24.9702 34.4159 24.5505 34.4159 24.0327C34.4159 23.515 33.9963 23.0952 33.4784 23.0952H7.9093C7.39155 23.0952 6.9718 23.515 6.9718 24.0327Z" fill="black"/>
<path d="M11.4758 17.4971C11.4758 18.0148 11.8956 18.4346 12.4133 18.4346H28.9742C29.492 18.4346 29.9117 18.0148 29.9117 17.4971C29.9117 16.9793 29.492 16.5596 28.9742 16.5596H12.4133C11.8956 16.5596 11.4758 16.9793 11.4758 17.4971Z" fill="black"/>
<path d="M24.3444 54.8482C22.6583 54.8527 20.9722 54.8563 19.286 54.8589C18.7193 54.8598 18.1527 54.8605 17.586 54.8609C16.5592 54.8617 15.8673 54.6555 15.6373 53.526C15.4428 52.571 14.0918 52.6994 13.8293 53.526C13.1805 55.5682 12.1075 54.768 11.5065 53.3944C10.9069 52.024 10.7532 50.4903 10.4913 49.0319C10.2988 47.9603 8.67804 48.2607 8.64979 49.2812C8.61254 50.625 8.48704 51.9475 8.14592 53.2509C7.79404 54.5957 7.26667 55.888 6.74317 57.1729C6.28679 58.293 8.10154 58.7749 8.55117 57.6714C9.01504 56.5329 9.47954 55.3882 9.82529 54.2072C10.4678 55.7522 11.797 57.4997 13.6912 56.4698C14.0435 56.2782 14.3727 56.0058 14.6615 55.6882C15.6465 56.8264 17.1127 56.7367 18.4845 56.735C20.4379 56.7325 22.3913 56.7283 24.3447 56.7232C25.5508 56.72 25.553 54.845 24.3444 54.8482Z" fill="black"/>
<path d="M63.2415 30.8049C62.7544 30.3201 62.0846 30.0715 61.4046 30.0531L60.6961 30.0566V28.7167C60.6961 27.9006 60.2114 27.0384 59.517 26.609V24.7218C59.517 20.8381 53.4705 20.855 53.4705 24.74V26.6275C52.7631 27.0648 52.2886 27.8451 52.2886 28.734V30.1068C49.1679 30.3193 49.159 35.0749 52.2921 35.2607C52.3121 39.4576 52.3111 43.5857 52.2886 47.8529C52.2825 49.0296 54.1573 49.0986 54.1636 47.8627C54.1861 43.592 54.1871 39.4603 54.1673 35.2599L58.8186 35.2368C58.8186 35.2368 58.8126 49.0927 58.8126 55.3347C58.8126 58.377 54.1603 58.3972 54.1603 55.3031L54.1619 53.5935C54.235 52.3835 52.3635 52.2706 52.2903 53.4805V55.0847C52.2903 56.4597 52.7155 57.6242 53.5388 58.4434C53.612 60.405 54.4385 62.3031 55.8349 63.6879C56.2355 64.0854 56.7901 63.9639 57.1779 63.6651C58.5985 62.242 59.399 60.3659 59.449 58.3634C60.0679 57.747 60.6875 57.1264 60.6875 55.0014L60.6883 46.4575C62.3095 46.9186 64 45.664 64 43.9642V32.6302C64 31.9399 63.7306 31.2916 63.2415 30.8049ZM54.1636 30.089V28.7339C54.1636 28.4565 54.354 28.2239 54.6103 28.1548L58.3634 28.1361C58.4684 28.1621 58.5653 28.2118 58.6438 28.29C58.7581 28.4039 58.8211 28.5554 58.8211 28.7167V30.066L54.1636 30.089ZM56.4975 23.589C57.073 23.589 57.6419 24.1533 57.6419 24.7218V26.2425L55.3454 26.2539V24.74C55.3455 24.1084 55.862 23.5921 56.4975 23.589ZM56.4961 61.5766C56.0603 60.9589 55.745 60.2602 55.569 59.5259C55.8593 59.5887 56.1533 59.6215 56.4474 59.6215C56.7758 59.6215 57.104 59.5807 57.4273 59.5019C57.2555 60.2474 56.9408 60.9502 56.4961 61.5766ZM62.125 43.9642C62.125 44.8519 60.6935 44.9217 60.6935 43.9806C60.6935 43.9806 60.6951 35.1089 60.6961 34.2956C60.6968 33.7711 60.2608 33.357 59.7514 33.357L52.4528 33.3932C51.5475 33.3932 51.5686 31.9769 52.462 31.9725L61.4139 31.9281C61.8468 31.965 62.0838 32.1991 62.1249 32.6302V43.9642H62.125Z" fill="black"/>
</g>
<defs>
<clipPath id="clip0">
<rect width="64" height="64" fill="white"/>
</clipPath>
</defs>
</svg>
