<svg  xmlns="http://www.w3.org/2000/svg">
  <symbol id="instagram" width="19" height="19" viewBox="0 0 19 19" fill="none">
    <g clip-path="url(#clip0)">
      <path d="M9.50326 4.62173C6.80921 4.62173 4.62817 6.80515 4.62817 9.49682C4.62817 12.1909 6.81159 14.3719 9.50326 14.3719C12.1973 14.3719 14.3783 12.1885 14.3783 9.49682C14.3783 6.80278 12.1949 4.62173 9.50326 4.62173ZM9.50326 12.6611C7.75446 12.6611 6.33896 11.2448 6.33896 9.49682C6.33896 7.74882 7.75526 6.33253 9.50326 6.33253C11.2513 6.33253 12.6675 7.74882 12.6675 9.49682C12.6683 11.2448 11.252 12.6611 9.50326 12.6611Z" fill="currentColor"/>
      <path d="M13.4166 0.0614817C11.6686 -0.02006 7.33899 -0.0161017 5.58941 0.0614817C4.05199 0.133523 2.69586 0.504815 1.60257 1.59811C-0.224594 3.42527 0.00894749 5.88736 0.00894749 9.49815C0.00894749 13.1937 -0.196886 15.5987 1.60257 17.3982C3.43686 19.2317 5.93457 18.9918 9.50261 18.9918C13.1633 18.9918 14.4268 18.9942 15.7212 18.4931C17.481 17.8099 18.8094 16.2368 18.9393 13.4114C19.0216 11.6626 19.0169 7.33373 18.9393 5.58415C18.7825 2.24886 16.9926 0.226148 13.4166 0.0614817ZM16.1835 16.1893C14.9857 17.3871 13.324 17.2802 9.47966 17.2802C5.52132 17.2802 3.93403 17.3388 2.77582 16.1774C1.44186 14.8498 1.68332 12.7179 1.68332 9.48549C1.68332 5.11153 1.23445 1.96148 5.62424 1.73665C6.63282 1.70102 6.9297 1.68915 9.46857 1.68915L9.5042 1.7129C13.723 1.7129 17.0329 1.27115 17.2317 5.66015C17.2768 6.66161 17.2871 6.96244 17.2871 9.49736C17.2863 13.4098 17.3607 15.0066 16.1835 16.1893Z" fill="currentColor"/>
      <path d="M14.5713 5.56858C15.2005 5.56858 15.7105 5.05854 15.7105 4.42937C15.7105 3.8002 15.2005 3.29016 14.5713 3.29016C13.9422 3.29016 13.4321 3.8002 13.4321 4.42937C13.4321 5.05854 13.9422 5.56858 14.5713 5.56858Z" fill="currentColor"/>
    </g>
    <defs>
      <clipPath id="clip0">
        <rect width="19" height="19" fill="white"/>
      </clipPath>
    </defs>
  </symbol>

  <symbol id="triangle-down" width="7" height="4" viewBox="0 0 7 4" fill="none" xmlns="http://www.w3.org/2000/svg">
    <path d="M3.5 4L6.53109 0.25H0.468911L3.5 4Z" fill="currentColor"/>
  </symbol>

  <symbol id="triangle-right" width="5" height="9" viewBox="0 0 5 9" fill="none" xmlns="http://www.w3.org/2000/svg">
    <path d="M5 4.5L0.5 8.39712L0.5 0.602886L5 4.5Z" fill="currentColor"/>
  </symbol>

  <symbol id="left-arrow" width="94" height="16" viewBox="0 0 94 16" fill="none">
    <path d="M0.292892 7.29289C-0.0976334 7.68342 -0.0976334 8.31658 0.292892 8.70711L6.65685 15.0711C7.04738 15.4616 7.68054 15.4616 8.07107 15.0711C8.46159 14.6805 8.46159 14.0474 8.07107 13.6569L2.41422 8L8.07107 2.34315C8.46159 1.95262 8.46159 1.31946 8.07107 0.928932C7.68054 0.538408 7.04738 0.538408 6.65685 0.928932L0.292892 7.29289ZM94 7L1 7V9L94 9V7Z" fill="currentColor"/>
  </symbol>

  <symbol id="right-arrow" width="94" height="16" viewBox="0 0 94 16" fill="none">
    <path d="M93.7071 8.70711C94.0976 8.31658 94.0976 7.68342 93.7071 7.29289L87.3431 0.928932C86.9526 0.538408 86.3195 0.538408 85.9289 0.928932C85.5384 1.31946 85.5384 1.95262 85.9289 2.34315L91.5858 8L85.9289 13.6569C85.5384 14.0474 85.5384 14.6805 85.9289 15.0711C86.3195 15.4616 86.9526 15.4616 87.3431 15.0711L93.7071 8.70711ZM0 9L93 9V7L0 7L0 9Z" fill="white"/>
  </symbol>

</svg>
