<svg width="64" height="64" viewBox="0 0 64 64" fill="none" xmlns="http://www.w3.org/2000/svg">
<g clip-path="url(#clip0)">
<path d="M57.9769 8.85208L55.1468 6.02208C54.2973 5.17258 53.1678 4.70483 51.9664 4.70483C50.7651 4.70483 49.6356 5.17258 48.7861 6.02208L38.8644 15.9437C38.3856 16.4226 38.3856 17.1991 38.8644 17.6778C39.3433 18.1567 40.1198 18.1567 40.5986 17.6778L45.8583 12.418L51.5808 18.1405L21.1208 48.6005L15.3983 42.878L37.7084 20.5678C38.1873 20.089 38.1873 19.3127 37.7084 18.8337C37.2296 18.3547 36.4531 18.3548 35.9743 18.8337L12.7973 42.011C12.6708 42.1375 12.5737 42.2901 12.5123 42.458L8.23132 54.1953C8.06782 54.6433 8.17894 55.1455 8.51632 55.4826C8.75044 55.7167 9.06382 55.8418 9.38357 55.8418C9.52457 55.8418 9.66657 55.8175 9.80357 55.7676L21.5412 51.4867C21.7091 51.4255 21.8617 51.3283 21.9881 51.2017L57.9771 15.2127C59.7306 13.459 59.7306 10.6056 57.9769 8.85208ZM11.4379 52.561L14.1572 45.1052L18.8936 49.8416L11.4379 52.561ZM56.2428 13.4785L53.3152 16.4061L47.5927 10.6838L50.5203 7.75621C50.9067 7.36983 51.4202 7.15721 51.9664 7.15721C52.5127 7.15721 53.0262 7.36996 53.4126 7.75621L56.2427 10.5862C56.6291 10.9726 56.8417 11.4861 56.8417 12.0323C56.8417 12.5786 56.6292 13.0921 56.2428 13.4785Z" fill="#009EE3"/>
<path d="M63.641 61.9067L39.5608 37.8249C39.082 37.346 38.3055 37.346 37.8266 37.8249C37.3477 38.3038 37.3477 39.08 37.8266 39.5592L59.8135 61.5475H52.4382V60.3917C52.4382 59.7144 51.8892 59.1654 51.212 59.1654C50.5347 59.1654 49.9857 59.7144 49.9857 60.3917V61.5475H45.217V60.3917C45.217 59.7144 44.668 59.1654 43.9907 59.1654C43.3135 59.1654 42.7645 59.7144 42.7645 60.3917V61.5475H37.9957V60.3917C37.9957 59.7144 37.4467 59.1654 36.7695 59.1654C36.0922 59.1654 35.5432 59.7144 35.5432 60.3917V61.5475H30.7746V60.3917C30.7746 59.7144 30.2256 59.1654 29.5483 59.1654C28.8711 59.1654 28.3221 59.7144 28.3221 60.3917V61.5475H23.5533V60.3917C23.5533 59.7144 23.0043 59.1654 22.3271 59.1654C21.6498 59.1654 21.1008 59.7144 21.1008 60.3917V61.5475H16.3322V60.3917C16.3322 59.7144 15.7832 59.1654 15.106 59.1654C14.4287 59.1654 13.8797 59.7144 13.8797 60.3917V61.5475H9.11096V60.3917C9.11096 59.7144 8.56196 59.1654 7.88471 59.1654C7.20746 59.1654 6.65846 59.7144 6.65846 60.3917V61.5475H2.45409V4.18667L24.6666 26.3992C25.1455 26.878 25.922 26.878 26.4006 26.3992C26.8795 25.9203 26.8795 25.144 26.4006 24.6652L2.09484 0.359171C1.74434 0.00842085 1.21671 -0.0963291 0.758587 0.0932959C0.300337 0.283171 0.00158691 0.730296 0.00158691 1.2263V62.7738C0.00158691 63.451 0.550587 64 1.22784 64H62.7737C63.2696 64 63.7167 63.7013 63.9066 63.243C64.0965 62.7849 63.9915 62.2574 63.641 61.9067Z" fill="black"/>
<path d="M19.8091 31.2541L11.4134 22.8585C11.0626 22.5076 10.5353 22.403 10.0772 22.5926C9.61894 22.7825 9.32019 23.2296 9.32019 23.7255V40.6083C9.32019 41.2856 9.86919 41.8346 10.5464 41.8346C11.2237 41.8346 11.7727 41.2856 11.7727 40.6083V26.6858L18.0751 32.9882C18.5539 33.4671 19.3304 33.4671 19.8092 32.9882C20.2879 32.5093 20.2879 31.733 19.8091 31.2541Z" fill="black"/>
<path d="M41.1408 52.5874L32.9692 44.4158C32.4903 43.9369 31.7138 43.9369 31.2351 44.4158C30.7562 44.8947 30.7562 45.6709 31.2351 46.1499L37.3135 52.2283H22.3888C21.7115 52.2283 21.1625 52.7773 21.1625 53.4545C21.1625 54.1318 21.7115 54.6808 22.3887 54.6808H40.2738C40.7698 54.6808 41.217 54.382 41.4067 53.9238C41.5965 53.4655 41.4915 52.938 41.1408 52.5874Z" fill="black"/>
</g>
<defs>
<clipPath id="clip0">
<rect width="64" height="64" fill="white"/>
</clipPath>
</defs>
</svg>
