<svg width="60" height="60" viewBox="0 0 60 60" fill="none" xmlns="http://www.w3.org/2000/svg">
<path d="M51 14.625H37V13.625C36.9941 8.65674 32.9683 4.63086 28 4.625H9C4.03174 4.63086 0.00585938 8.65674 0 13.625V25.625C0.00585938 30.5933 4.03174 34.6191 9 34.625H10V42.625C10 43.0293 10.2437 43.394 10.6172 43.5488C10.9907 43.7036 11.4209 43.6177 11.707 43.332L20.4141 34.625H23V35.625C23.0059 40.5933 27.0317 44.6191 32 44.625H37.5859L48.293 55.332C48.5791 55.6177 49.0093 55.7036 49.3828 55.5488C49.7563 55.3941 50 55.0293 50 54.625V44.625H51C55.9683 44.6191 59.9941 40.5933 60 35.625V23.625C59.9941 18.6567 55.9683 14.6309 51 14.625ZM20 32.625C19.7349 32.625 19.4805 32.7305 19.293 32.918L12 40.2109V33.625C12 33.0728 11.5522 32.625 11 32.625H9C5.13574 32.6206 2.00439 29.4893 2 25.625V13.625C2.00439 9.76074 5.13574 6.62939 9 6.625H28C31.8643 6.62939 34.9956 9.76074 35 13.625V14.625H32C27.0317 14.6309 23.0059 18.6567 23 23.625V32.625H20ZM58 35.625C57.9956 39.4893 54.8643 42.6206 51 42.625H49C48.4478 42.625 48 43.0728 48 43.625V52.2109L38.707 42.918C38.5195 42.7305 38.2651 42.625 38 42.625H32C28.1357 42.6206 25.0044 39.4893 25 35.625V23.625C25.0044 19.7607 28.1357 16.6294 32 16.625H51C54.8643 16.6294 57.9956 19.7607 58 23.625V35.625Z" fill="#009EE3"/>
<path d="M53 22.625H30C29.4478 22.625 29 23.0728 29 23.625C29 24.1772 29.4478 24.625 30 24.625H53C53.5523 24.625 54 24.1772 54 23.625C54 23.0728 53.5523 22.625 53 22.625Z" fill="black"/>
<path d="M53 28.625H30C29.4478 28.625 29 29.0728 29 29.625C29 30.1772 29.4478 30.625 30 30.625H53C53.5523 30.625 54 30.1772 54 29.625C54 29.0728 53.5523 28.625 53 28.625Z" fill="black"/>
<path d="M53 34.625H30C29.4478 34.625 29 35.0728 29 35.625C29 36.1772 29.4478 36.625 30 36.625H53C53.5523 36.625 54 36.1772 54 35.625C54 35.0728 53.5523 34.625 53 34.625Z" fill="black"/>
<path d="M6 14.625H27C27.5522 14.625 28 14.1772 28 13.625C28 13.0728 27.5522 12.625 27 12.625H6C5.44775 12.625 5 13.0728 5 13.625C5 14.1772 5.44775 14.625 6 14.625Z" fill="black"/>
<path d="M21 18.625H6C5.44775 18.625 5 19.0728 5 19.625C5 20.1772 5.44775 20.625 6 20.625H21C21.5522 20.625 22 20.1772 22 19.625C22 19.0728 21.5522 18.625 21 18.625Z" fill="black"/>
<path d="M20 24.625H6C5.44775 24.625 5 25.0728 5 25.625C5 26.1772 5.44775 26.625 6 26.625H20C20.5522 26.625 21 26.1772 21 25.625C21 25.0728 20.5522 24.625 20 24.625Z" fill="black"/>
</svg>
